<svg width="50" height="50" viewBox="0 0 50 50" fill="none" xmlns="http://www.w3.org/2000/svg">
<rect width="50" height="50" fill="black"/>
<g id="codebrew_2024 1" clip-path="url(#clip0_388_1317)" transform="scale(0.8) translate(9.5, 12)">
<g id="Layer 2">
<g id="Layer 1">
<g id="Artboard-Copy">
<path id="Combined-Shape" fill-rule="evenodd" clip-rule="evenodd" d="M25.7794 0.5C26.1901 0.5 26.5839 0.664043 26.8744 0.956041C27.1648 1.24804 27.3279 1.64407 27.3279 2.05702V2.10281C27.3279 2.51576 27.1648 2.9118 26.8744 3.20379C26.5839 3.49579 26.1901 3.65983 25.7794 3.65983H25.6655V10.464C27.6949 11.2117 29.3977 12.6538 30.4753 14.5376C31.5529 16.4213 31.9365 18.6263 31.5589 20.766C31.1813 22.9057 30.0665 24.8434 28.4101 26.2393C26.7537 27.6353 24.6613 28.4003 22.5 28.4003C20.3387 28.4003 18.2463 27.6353 16.5899 26.2393C14.9335 24.8434 13.8187 22.9057 13.4411 20.766C13.0635 18.6263 13.4471 16.4213 14.5247 14.5376C15.6023 12.6538 17.3051 11.2117 19.3345 10.464V3.65983H19.2206C18.8099 3.65983 18.416 3.49579 18.1256 3.20379C17.8352 2.9118 17.6721 2.51576 17.6721 2.10281V2.05702C17.6721 1.64407 17.8352 1.24804 18.1256 0.956041C18.416 0.664043 18.8099 0.5 19.2206 0.5L25.7794 0.5ZM22.5 13.1989C21.6 13.2004 20.7121 13.408 19.9038 13.806C19.0954 14.2039 18.3878 14.7818 17.8347 15.4957C17.2816 16.2095 16.8975 17.0407 16.7114 17.9261C16.5254 18.8115 16.5424 19.7279 16.7611 20.6057C18.1922 21.0325 20.485 20.8081 22.0691 19.3848C23.7088 17.9194 25.5079 16.9119 28.1879 17.4761C27.8273 16.2406 27.0781 15.1559 26.0526 14.3848C25.0271 13.6136 23.7806 13.1975 22.5 13.1989Z" fill="white"/>
<path id="Path" fill-rule="evenodd" clip-rule="evenodd" d="M41.4993 18.8655C41.5056 21.7776 40.8496 24.6526 39.5815 27.2708C38.3134 29.8889 36.4668 32.1809 34.1827 33.9716C31.8987 35.7622 29.2377 37.0041 26.4031 37.6024C23.5686 38.2006 20.6355 38.1394 17.8281 37.4233C15.0207 36.7072 12.4133 35.3552 10.2052 33.4708C7.99708 31.5863 6.2467 29.2192 5.08784 26.5503C3.92899 23.8815 3.39233 20.9816 3.5189 18.0722C3.64547 15.1629 4.43191 12.3212 5.81812 9.76428L8.19838 12.1557C7.20907 14.2527 6.69568 16.5446 6.69534 18.8655C6.69395 21.399 7.29495 23.896 8.44825 26.1485C9.60154 28.401 11.2737 30.3436 13.3253 31.8144C15.3769 33.2852 17.7485 34.2415 20.2423 34.6037C22.7361 34.9658 25.2799 34.7233 27.6616 33.8963C30.0433 33.0693 32.1938 31.6818 33.9339 29.8495C35.674 28.0172 36.9531 25.7931 37.6648 23.3628C38.3764 20.9326 38.4999 18.3664 38.0249 15.8784C37.5499 13.3904 36.4902 11.0526 34.9342 9.05996L32.6569 11.3543C33.3608 12.3449 33.9435 13.4172 34.3922 14.548C35.1374 16.6102 35.3382 18.8314 34.975 20.9949C34.6118 23.1584 33.6971 25.1904 32.32 26.8924C30.943 28.5945 29.1506 29.9087 27.1178 30.7066C25.0851 31.5046 22.8813 31.7591 20.7215 31.4454C18.5617 31.1317 16.5196 30.2605 14.7946 28.9167C13.0695 27.573 11.7203 25.8025 10.8787 23.7782C10.037 21.7538 9.7316 19.5447 9.99225 17.3663C10.2529 15.1879 11.0707 13.1146 12.3659 11.3488L5.31346 4.27716C2.54501 7.57154 0.770858 11.593 0.200079 15.8675C-0.370699 20.142 0.285684 24.4915 2.09188 28.4035C3.89807 32.3154 6.77879 35.6266 10.3946 37.9471C14.0103 40.2675 18.2105 41.5003 22.5 41.5003C26.7895 41.5003 30.9897 40.2675 34.6054 37.9471C38.2212 35.6266 41.1019 32.3154 42.9081 28.4035C44.7143 24.4915 45.3707 20.142 44.7999 15.8675C44.2291 11.593 42.455 7.57154 39.6865 4.27716L37.1942 6.77206C39.9812 10.1789 41.5032 14.4543 41.4993 18.8655Z" fill="url(#paint0_radial_388_1317)"/>
</g>
</g>
</g>
</g>
<defs>
<radialGradient id="paint0_radial_388_1317" cx="0" cy="0" r="1" gradientUnits="userSpaceOnUse" gradientTransform="translate(22.7787 36.3099) rotate(-61.7778) scale(32.3445 32.2478)">
<stop stop-color="#D8214D"/>
<stop offset="0.31" stop-color="#FF6D4C"/>
<stop offset="0.62" stop-color="#FFC23B"/>
<stop offset="1" stop-color="#B9FF4D"/>
</radialGradient>
<clipPath id="clip0_388_1317">
<rect width="45" height="41" fill="white" transform="translate(0 0.5)"/>
</clipPath>
</defs>
</svg>
